<svg xmlns="http://www.w3.org/2000/svg" width="900" height="300" viewBox="0 0 900 300"><rect width="900" height="300" rx="20" fill="#fcf7f4"/><rect x="14" y="14" width="872" height="272" rx="14" fill="none" stroke="#e8dcd8"/><g transform="translate(65 76) scale(1)"><path d="M0 12 Q-14 50 5 85" fill="none" stroke="#9aaa8e" stroke-width="2"/><ellipse cx="-9" cy="49" rx="6" ry="15" fill="#bac8ae" transform="rotate(-40 -9 49)"/><ellipse cx="0" cy="-15" rx="10" ry="16" fill="#e7aebc" transform="rotate(0)"/><ellipse cx="0" cy="-15" rx="10" ry="16" fill="#e7aebc" transform="rotate(72)"/><ellipse cx="0" cy="-15" rx="10" ry="16" fill="#e7aebc" transform="rotate(144)"/><ellipse cx="0" cy="-15" rx="10" ry="16" fill="#e7aebc" transform="rotate(216)"/><ellipse cx="0" cy="-15" rx="10" ry="16" fill="#e7aebc" transform="rotate(288)"/><circle r="7" fill="#f4dfab"/></g><g transform="translate(137 174) scale(0.8)"><path d="M0 12 Q-14 50 5 85" fill="none" stroke="#9aaa8e" stroke-width="2"/><ellipse cx="-9" cy="49" rx="6" ry="15" fill="#bac8ae" transform="rotate(-40 -9 49)"/><ellipse cx="0" cy="-15" rx="10" ry="16" fill="#c4b4d8" transform="rotate(0)"/><ellipse cx="0" cy="-15" rx="10" ry="16" fill="#c4b4d8" transform="rotate(72)"/><ellipse cx="0" cy="-15" rx="10" ry="16" fill="#c4b4d8" transform="rotate(144)"/><ellipse cx="0" cy="-15" rx="10" ry="16" fill="#c4b4d8" transform="rotate(216)"/><ellipse cx="0" cy="-15" rx="10" ry="16" fill="#c4b4d8" transform="rotate(288)"/><circle r="7" fill="#f4dfab"/></g><g transform="translate(40 233) scale(0.6)"><path d="M0 12 Q-14 50 5 85" fill="none" stroke="#9aaa8e" stroke-width="2"/><ellipse cx="-9" cy="49" rx="6" ry="15" fill="#bac8ae" transform="rotate(-40 -9 49)"/><ellipse cx="0" cy="-15" rx="10" ry="16" fill="#e7aebc" transform="rotate(0)"/><ellipse cx="0" cy="-15" rx="10" ry="16" fill="#e7aebc" transform="rotate(72)"/><ellipse cx="0" cy="-15" rx="10" ry="16" fill="#e7aebc" transform="rotate(144)"/><ellipse cx="0" cy="-15" rx="10" ry="16" fill="#e7aebc" transform="rotate(216)"/><ellipse cx="0" cy="-15" rx="10" ry="16" fill="#e7aebc" transform="rotate(288)"/><circle r="7" fill="#f4dfab"/></g><g transform="translate(815 76) scale(0.85)"><path d="M0 12 Q-14 50 5 85" fill="none" stroke="#9aaa8e" stroke-width="2"/><ellipse cx="-9" cy="49" rx="6" ry="15" fill="#bac8ae" transform="rotate(-40 -9 49)"/><ellipse cx="0" cy="-15" rx="10" ry="16" fill="#c4b4d8" transform="rotate(0)"/><ellipse cx="0" cy="-15" rx="10" ry="16" fill="#c4b4d8" transform="rotate(72)"/><ellipse cx="0" cy="-15" rx="10" ry="16" fill="#c4b4d8" transform="rotate(144)"/><ellipse cx="0" cy="-15" rx="10" ry="16" fill="#c4b4d8" transform="rotate(216)"/><ellipse cx="0" cy="-15" rx="10" ry="16" fill="#c4b4d8" transform="rotate(288)"/><circle r="7" fill="#f4dfab"/></g><g transform="translate(863 192) scale(1)"><path d="M0 12 Q-14 50 5 85" fill="none" stroke="#9aaa8e" stroke-width="2"/><ellipse cx="-9" cy="49" rx="6" ry="15" fill="#bac8ae" transform="rotate(-40 -9 49)"/><ellipse cx="0" cy="-15" rx="10" ry="16" fill="#e7aebc" transform="rotate(0)"/><ellipse cx="0" cy="-15" rx="10" ry="16" fill="#e7aebc" transform="rotate(72)"/><ellipse cx="0" cy="-15" rx="10" ry="16" fill="#e7aebc" transform="rotate(144)"/><ellipse cx="0" cy="-15" rx="10" ry="16" fill="#e7aebc" transform="rotate(216)"/><ellipse cx="0" cy="-15" rx="10" ry="16" fill="#e7aebc" transform="rotate(288)"/><circle r="7" fill="#f4dfab"/></g><g transform="translate(767 226) scale(0.55)"><path d="M0 12 Q-14 50 5 85" fill="none" stroke="#9aaa8e" stroke-width="2"/><ellipse cx="-9" cy="49" rx="6" ry="15" fill="#bac8ae" transform="rotate(-40 -9 49)"/><ellipse cx="0" cy="-15" rx="10" ry="16" fill="#e7aebc" transform="rotate(0)"/><ellipse cx="0" cy="-15" rx="10" ry="16" fill="#e7aebc" transform="rotate(72)"/><ellipse cx="0" cy="-15" rx="10" ry="16" fill="#e7aebc" transform="rotate(144)"/><ellipse cx="0" cy="-15" rx="10" ry="16" fill="#e7aebc" transform="rotate(216)"/><ellipse cx="0" cy="-15" rx="10" ry="16" fill="#e7aebc" transform="rotate(288)"/><circle r="7" fill="#f4dfab"/></g><text x="450" y="100" text-anchor="middle" font-family="Georgia, serif" font-size="14" letter-spacing="3" fill="#8b716f">WELCOME TO MY LITTLE CORNER</text><text x="450" y="164" text-anchor="middle" font-family="Georgia, serif" font-size="52" fill="#694f59">Hi, I’m Heather</text><text x="450" y="203" text-anchor="middle" font-family="Arial, sans-serif" font-size="16" letter-spacing="2" fill="#777c6d">BIOSTATISTICS · DATA SCIENCE</text></svg>